Coordinates
version=1
nRows=15
nColumns=34
inDegrees=yes

Units are S.I. units (second, meters, Newtons, ...)
If the header above contains a line with 'inDegrees', this indicates whether rotational values are in degrees (yes) or radians (no).

endheader
time	pelvis_tilt	pelvis_list	pelvis_rotation	pelvis_tx	pelvis_ty	pelvis_tz	hip_flexion_r	hip_adduction_r	hip_rotation_r	knee_angle_r	ankle_angle_r	subtalar_angle_r	mtp_angle_r	hip_flexion_l	hip_adduction_l	hip_rotation_l	knee_angle_l	ankle_angle_l	subtalar_angle_l	mtp_angle_l	lumbar_extension	lumbar_bending	lumbar_rotation	arm_flex_r	arm_add_r	arm_rot_r	elbow_flex_r	pro_sup_r	arm_flex_l	arm_add_l	arm_rot_l	elbow_flex_l	pro_sup_l
      4.30000000	    -11.39154273	     -0.38798503	      2.76070243	      0.23328664	      0.87859402	     -0.05975472	      3.73421788	     -2.03270884	     -4.77651458	      0.00000000	     -2.06515465	     -4.27709327	      0.00000000	      5.49266520	     -4.39275561	      0.20089414	      0.00000000	      1.30570231	      4.88618532	      0.00000000	      5.70799269	      1.81338509	      2.23242095	     39.78778099	     14.58134586	     55.93209495	    131.89394870	    104.20851387	     46.71442815	     20.58948879	     48.74742875	    133.54020699	     87.52023197
      4.31666670	    -11.40688952	     -0.42243132	      2.72497720	      0.23339514	      0.87986456	     -0.06048471	      3.82739678	     -2.05678219	     -4.76484652	      0.00000000	     -2.05497148	     -4.24352324	      0.00000000	      5.53790742	     -4.38595837	      0.20285987	      0.00000000	      1.31066585	      4.88915163	      0.00000000	      5.56918973	      1.84229228	      2.22564038	     39.74545275	     14.52510172	     55.93895633	    131.86051494	    104.20776857	     46.67956041	     20.55422679	     48.76859779	    133.52138341	     87.52423620
      4.33333330	    -11.45197919	     -0.45163895	      2.65813175	      0.23376666	      0.87940524	     -0.06110670	      3.93746105	     -2.08732795	     -4.71981887	      0.00000000	     -2.03445716	     -4.18691927	      0.00000000	      5.58909002	     -4.36310315	      0.21617735	      0.00000000	      1.32937694	      4.89768562	      0.00000000	      5.39283608	      1.90139134	      2.19885654	     39.74532893	     14.37715908	     55.88626751	    131.78344577	    104.20356150	     46.62725118	     20.52930654	     48.81463135	    133.51704162	     87.53003817
      4.35000000	    -11.43181139	     -0.49980490	      2.52480661	      0.23324202	      0.88224033	     -0.06188475	      3.97804396	     -2.09652321	     -4.48920410	      0.00000000	     -2.02390700	     -3.79764825	      0.00000000	      5.56673368	     -4.37118144	      0.23454994	      0.00000000	      1.36472005	      4.91959194	      0.00000000	      5.31433283	      1.99337215	      2.49271656	     39.89300741	     13.84286374	     55.63959515	    131.28958178	    104.17882306	     46.14082038	     20.39673909	     49.27148234	    133.63956412	     87.58415891
      4.36666670	    -11.45520053	     -0.51121195	      2.44215824	      0.23227839	      0.88103461	     -0.06282894	      4.08099087	     -2.14831050	     -4.52447570	      0.00000000	     -1.99147983	     -3.78604669	      0.00000000	      5.63344083	     -4.31258088	      0.24278636	      0.00000000	      1.39153333	      4.92044725	      0.00000000	      5.16891183	      2.04681233	      2.55574016	     39.88100963	     13.86712114	     55.64559368	    131.24922878	    104.17616011	     46.12634700	     20.37720212	     49.31044949	    133.61794531	     87.59019272
      4.38333330	    -11.47008644	     -0.44954379	      2.34416475	      0.23138903	      0.87815862	     -0.06480265	      4.13698071	     -2.30948315	     -4.53381430	      0.00000000	     -1.96280334	     -3.71036350	      0.00000000	      5.66678924	     -4.14641341	      0.31129621	      0.00000000	      1.48275245	      4.92818351	      0.00000000	      5.14603331	      2.20630658	      2.78554568	     39.92377036	     14.10070618	     55.76240519	    131.26887131	    104.17439901	     46.17037758	     20.34036333	     49.40388417	    133.54909256	     87.60632643
      4.40000000	    -11.46881189	     -0.49053000	      2.33997961	      0.23261737	      0.88078193	     -0.06615342	      4.12348482	     -2.32171515	     -4.53189421	      0.00000000	     -1.96426954	     -3.70524540	      0.00000000	      5.69072611	     -4.12594424	      0.31157243	      0.00000000	      1.48471529	      4.92662918	      0.00000000	      5.14511659	      2.19165226	      2.80338361	     39.92558161	     14.11373147	     55.77264135	    131.26926624	    104.17450079	     46.17234298	     20.33581966	     49.40783248	    133.54999074	     87.60709571
      4.41666670	    -11.51414537	     -0.16334959	      2.12089226	      0.23045826	      0.88275311	     -0.06673117	      4.23691734	     -2.76699504	     -4.54548961	      0.00000000	     -2.13365626	     -2.99349137	      0.00000000	      5.74428463	     -3.68995320	      0.08656759	      0.00000000	      1.29249315	      4.50015121	      0.00000000	      4.79068461	      1.90132611	      3.64899868	     39.77079675	     14.51070787	     57.54239868	    131.63140153	    104.20371311	     46.47094346	     20.42467298	     50.32567891	    133.54438539	     87.73711274
      4.43333330	    -11.53804999	     -0.13049516	      2.18844045	      0.22922723	      0.88480409	     -0.06822903	      4.32077404	     -2.90860998	     -4.55391120	      0.00000000	     -2.15765222	     -2.95046839	      0.00000000	      5.86091274	     -3.55256786	      0.13482238	      0.00000000	      1.19605895	      4.51850889	      0.00000000	      4.57287171	      2.00226271	      3.76475639	     39.74376857	     14.55503943	     57.67329675	    131.70686980	    104.20516684	     46.42110953	     20.26211923	     50.34876389	    133.46128565	     87.74363388
      4.45000000	    -11.44025925	      0.11544040	      2.12440113	      0.23351682	      0.88854403	     -0.06963690	      4.21022914	     -3.25762577	     -4.66223982	      0.00000000	     -2.48274515	     -2.65392261	      0.00000000	      5.73654310	     -3.22496464	      0.26901692	      0.00000000	      0.54069144	      4.53361127	      0.00000000	      4.33943958	      1.87204371	      4.16378775	     39.14034479	     14.86684152	     58.83869319	    132.17059256	    104.24278198	     46.06514030	     19.68919210	     50.58480606	    133.28499770	     87.77044247
      4.46666670	    -11.44513582	      0.14409629	      2.15037983	      0.23163042	      0.88302506	     -0.07040697	      4.15862971	     -3.41014890	     -4.76127839	      0.00000000	     -2.39989399	     -2.12631887	      0.00000000	      5.80239874	     -3.06617691	      0.28345718	      0.00000000	      0.21835231	      3.93029903	      0.00000000	      4.01017943	      1.73863455	      3.95260407	     39.32165499	     15.04917534	     61.21180705	    133.14554019	    104.32117266	     46.38383269	     19.80839612	     51.05052013	    133.25430798	     87.82584492
      4.48333330	    -11.43096133	      0.08954265	      2.14702305	      0.23030846	      0.87966452	     -0.07209465	      4.14541560	     -3.43154794	     -4.76708233	      0.00000000	     -2.39819334	     -2.12896219	      0.00000000	      5.80226356	     -3.03771083	      0.27846523	      0.00000000	      0.21843948	      3.92672350	      0.00000000	      4.02145938	      1.73199893	      3.95773307	     39.32290371	     15.05683939	     61.21572949	    133.14694024	    104.32122897	     46.38988001	     19.80982407	     51.04938903	    133.25571979	     87.82592851
      4.50000000	    -11.39950170	      0.15381567	      2.19952431	      0.23143821	      0.88529939	     -0.07352327	      4.04587412	     -3.62535283	     -4.86225656	      0.00000000	     -2.42680472	     -2.14144428	      0.00000000	      5.77237773	     -2.84861730	      0.22401336	      0.00000000	      0.16181961	      3.87377241	      0.00000000	      4.17903267	      1.83153101	      3.93375552	     39.32313167	     15.20388803	     61.31832824	    133.21493090	    104.32369664	     46.61573673	     19.94690349	     51.02386336	    133.26483350	     87.82376406
      4.51666670	    -11.40404025	      0.26898702	      2.24923964	      0.23321469	      0.88464821	     -0.07454791	      4.05443234	     -3.84418049	     -5.10711235	      0.00000000	     -2.56286575	     -2.08993623	      0.00000000	      5.79558527	     -2.61982380	      0.29854973	      0.00000000	     -0.02894878	      3.68861177	      0.00000000	      3.87899745	      1.45065381	      3.91946758	     39.15258105	     15.68496512	     61.88131847	    133.30453491	    104.34440410	     47.47649649	     20.30848636	     50.84187274	    133.42351578	     87.79613445
      4.53333330	    -11.41193603	      0.19487928	      2.24567881	      0.23431913	      0.88479483	     -0.07649681	      4.04994077	     -3.86869669	     -5.10369250	      0.00000000	     -2.56499529	     -2.08749630	      0.00000000	      5.78447987	     -2.59754343	      0.30234194	      0.00405566	     -0.03125767	      3.68800734	      0.00000000	      3.87494585	      1.43482309	      3.92489780	     39.15220649	     15.68601857	     61.88551683	    133.30283835	    104.34464345	     47.47778398	     20.30392279	     50.84113961	    133.42799983	     87.79578928
